<svg width="545" height="379" viewBox="0 0 545 379" fill="none" xmlns="http://www.w3.org/2000/svg">
<path id="Path 2" opacity="0.25" d="M125.829 372.731L125.883 372.783L125.902 372.783L126.013 372.793L126.261 372.807L126.384 372.811L126.656 372.809L126.967 372.795L127.32 372.768L127.72 372.727L128.169 372.672L128.673 372.604L129.372 372.499L130.195 372.369L130.965 372.239L131.687 372.109C131.803 372.087 131.917 372.065 132.03 372.043L132.683 371.911L133.293 371.777C133.392 371.755 133.488 371.732 133.583 371.709L134.135 371.57C135.915 371.098 137.101 370.549 138.15 369.772L138.462 369.532L138.767 369.278C138.818 369.234 138.868 369.19 138.919 369.145L139.135 368.946L139.294 368.788L139.602 368.465L139.984 368.052L140.819 367.128L143.919 363.617L145.887 361.383L147.079 360.043L147.853 359.186L148.295 358.707L150.191 356.669L151.405 355.357L153.154 353.454L154.826 351.621L156.426 349.849L157.964 348.129L159.445 346.452L160.405 345.354L161.809 343.73L162.725 342.659L164.073 341.063L164.958 340.002L169.272 334.764L172.738 330.519L176.977 325.282L181.056 320.202L187.117 312.593L193.516 304.507L203.46 291.883L209.961 283.604L225.795 263.348L275.91 198.995L290.03 180.96L294.912 174.754L301.911 165.885L305.839 160.922L307.018 159.45L308.739 157.331L309.985 155.821L311.81 153.639L313.781 151.318L316.613 148.03L319.885 144.271L354.743 104.472L365.126 92.683L371.711 85.2643L375.539 80.9817L380.662 75.2929L384.591 70.9663L387.577 67.6995L391.037 63.9356L392.736 62.0961L393.491 61.2894L394.245 60.495L394.999 59.7119L395.755 58.939L396.513 58.1752L397.274 57.4194L398.041 56.6708L398.813 55.928L399.985 54.8229L400.777 54.0905L401.579 53.3604L402.393 52.6316L403.219 51.903L404.058 51.1735L404.913 50.4421L405.783 49.7077L406.67 48.9692L407.576 48.2258L408.971 47.0987L409.927 46.338L410.906 45.5684L412.419 44.3954L413.989 43.1968L415.069 42.3817L416.742 41.1324L418.483 39.8481L419.684 38.9706L420.917 38.0749L422.831 36.6948L424.826 35.2678L428.861 32.4053L429.778 31.74L432.539 29.6909L433.331 29.1077L434.433 28.3062L435.118 27.8168L435.769 27.3603L436.39 26.9342L436.985 26.5356C437.082 26.4714 437.178 26.4082 437.274 26.3459L437.839 25.984L438.39 25.6432C438.48 25.588 438.571 25.5336 438.661 25.4799L439.198 25.1658L439.733 24.8662L440.268 24.5786C440.358 24.5315 440.448 24.4848 440.538 24.4384L441.084 24.1637L441.642 23.8944C441.737 23.8498 441.832 23.8053 441.927 23.7609C445.868 21.935 448.796 21.7475 450.819 23.9613C451.763 24.9941 452.155 25.9118 452.334 27.5109L452.379 27.987C452.386 28.0697 452.392 28.154 452.398 28.2402L452.43 28.7797L452.454 29.3665L452.518 31.6617L452.593 33.0904L452.687 34.7245C452.835 37.4887 452.804 39.366 452.474 41.3325L452.346 42.0847L452.092 43.5455L451.837 44.9508L451.582 46.3042C451.539 46.5256 451.496 46.7451 451.453 46.9625L451.193 48.2446L450.929 49.4834C450.663 50.7018 450.388 51.8606 450.099 52.9756L449.806 54.0765C449.21 56.2513 448.553 58.2716 447.792 60.2629L447.346 61.4041L446.963 62.3526L446.445 63.5987L446.045 64.5309L445.631 65.471L445.199 66.4281L444.588 67.7458L444.097 68.777L443.394 70.226L442.823 71.38L441.779 73.4579L440.849 75.2831L436.963 82.8362L436.154 84.4349L435.306 86.1404L434.793 87.1927L434.426 87.9578L433.933 89.0047L433.442 90.0691L431.997 93.237L430.547 96.4368L428.6 100.764L426.631 105.177L424.632 109.69L422.081 115.497L419.989 120.295L417.298 126.51L415.075 131.675L413.937 134.328C413.822 134.598 413.703 134.87 413.582 135.146L413.208 135.986L412.813 136.852L412.395 137.749L411.952 138.683L411.235 140.164L410.448 141.755L409.431 143.777L405.167 152.16L404.438 153.618L403.403 155.719C403.291 155.947 403.181 156.173 403.073 156.398L402.435 157.726L401.826 159.017L401.244 160.273C401.149 160.48 401.055 160.685 400.963 160.889L400.42 162.098C400.332 162.298 400.245 162.496 400.158 162.693L399.653 163.862L399.171 165.008C399.014 165.386 398.861 165.761 398.712 166.133L398.274 167.241C398.06 167.791 397.854 168.335 397.655 168.876L397.267 169.952C397.204 170.131 397.142 170.309 397.08 170.487L396.718 171.553C396.66 171.73 396.601 171.907 396.544 172.084C392.754 183.756 392.766 193.09 397.311 200.682L397.449 200.908L397.515 200.932L397.6 200.958L397.813 201.011L398.273 201.097L398.972 201.199C404.912 202.052 412.485 200.165 417.288 196.692L417.81 196.308L418.572 195.731L419.19 195.25L420.078 194.545L421.036 193.768L422.606 192.469L424.331 191.012L426.537 189.117L428.589 187.328L431.169 185.053L433.945 182.579L436.911 179.911L441.948 175.337L444.884 172.651L451.141 166.886L455.021 163.289L460.021 158.63L468.701 150.49L495.788 124.948L496.924 123.921L498.071 122.895L499.229 121.871L500.395 120.851L501.569 119.837L502.749 118.829L503.932 117.83C504.13 117.664 504.327 117.499 504.525 117.334L505.712 116.351L506.898 115.379C507.096 115.219 507.294 115.059 507.491 114.899L508.675 113.949C508.872 113.792 509.069 113.636 509.266 113.48L510.443 112.555C510.639 112.402 510.834 112.25 511.03 112.099L512.197 111.202L513.356 110.326C514.51 109.46 515.649 108.628 516.765 107.837L517.874 107.059L518.966 106.309C519.146 106.186 519.326 106.065 519.505 105.945L520.569 105.241C522.501 103.979 524.331 102.879 526.012 101.985L526.925 101.51L527.811 101.061L528.661 100.641C533.941 98.0706 537.231 97.2401 541.475 97.9122C542.829 98.1267 543.646 98.9953 544.056 100.03C544.247 100.511 544.333 101.005 544.345 101.479L544.37 102.162L544.398 102.701L544.471 103.783L544.64 105.977L544.702 106.868L544.75 107.704L544.784 108.49L544.803 109.232C544.836 111.278 544.681 112.866 544.262 114.593L544.152 115.037L543.929 115.916L543.698 116.786L543.458 117.653L543.208 118.522C543.165 118.667 543.122 118.813 543.078 118.959L542.808 119.841L542.524 120.739C542.476 120.891 542.426 121.043 542.376 121.196L542.067 122.128L541.74 123.089L541.392 124.085L541.022 125.122L540.424 126.764L539.994 127.925L537.939 133.392L537.343 135.013L537.073 135.765C534.309 143.508 533.055 149.311 533.235 155.472L533.254 156.004L533.832 156.059L534.431 156.11L534.966 156.146C536.063 156.205 536.761 156.153 537.384 155.969C537.503 155.933 537.623 155.881 537.762 155.798L537.938 155.682L538.138 155.533L538.368 155.345C538.409 155.31 538.451 155.273 538.495 155.235L538.781 154.979L539.295 154.497L539.823 153.999L540.116 153.731L540.379 153.498L540.63 153.288L540.884 153.086L541.018 152.984L544.634 157.772L544.484 157.889L544.245 158.089L544.061 158.253L543.584 158.699L543.433 158.842C541.658 160.533 540.726 161.237 539.086 161.722C537.438 162.209 535.97 162.261 533.712 162.072L531.842 161.9L531.32 161.861L530.972 161.842C530.522 161.823 530.061 161.744 529.598 161.565C528.496 161.141 527.574 160.266 527.434 158.788C526.668 150.725 527.918 143.741 531.168 134.467L531.56 133.363L532.313 131.307L534.363 125.852L534.976 124.194L535.354 123.153L535.878 121.677L536.201 120.742L536.505 119.839L536.792 118.964L537.062 118.112L537.318 117.276L537.561 116.453L537.792 115.637L538.013 114.822L538.226 114.003L538.431 113.175C538.718 111.996 538.829 110.82 538.799 109.203L538.782 108.574C538.778 108.466 538.773 108.356 538.768 108.243L538.732 107.543L538.683 106.788L538.481 104.137L538.45 103.72L538.232 103.734C536.627 103.852 534.919 104.377 532.653 105.397L531.955 105.717L531.222 106.068L530.45 106.45C530.317 106.516 530.183 106.584 530.048 106.653L529.227 107.074C527.274 108.085 525.057 109.439 522.672 111.046L521.64 111.75C520.946 112.229 520.239 112.728 519.521 113.244L518.437 114.031L517.34 114.842C517.156 114.98 516.971 115.118 516.786 115.257L515.672 116.102L514.547 116.969L513.414 117.854L512.276 118.757L511.132 119.675C510.942 119.83 510.751 119.984 510.56 120.14L509.413 121.079L508.266 122.031L507.12 122.993C506.93 123.154 506.739 123.315 506.548 123.477L504.84 124.941L503.709 125.924L502.586 126.911L501.473 127.901L500.371 128.891L499.705 129.5L472.716 154.951L462.065 164.93L456.817 169.807L451.35 174.858L446.745 179.084L442.907 182.578L438.886 186.208L435.58 189.161L433.645 190.873L431.108 193.094L429.095 194.833L427.534 196.163L426.362 197.148L425.259 198.063L423.978 199.106L423.033 199.86L422.371 200.377L421.749 200.853L421.168 201.288L420.803 201.555C414.87 205.845 405.984 208.117 398.59 207.201L398.065 207.13L397.283 207.015L397.032 206.972C394.992 206.609 393.488 205.899 392.451 204.234C386.58 194.817 386.489 183.621 390.837 170.231C391.081 169.48 391.336 168.729 391.602 167.975L392.011 166.84L392.439 165.697C392.657 165.123 392.884 164.544 393.118 163.96L393.598 162.782L394.1 161.586L394.626 160.367L395.177 159.123C395.27 158.914 395.365 158.703 395.461 158.491L396.051 157.204L396.668 155.885L397.312 154.53C397.422 154.301 397.534 154.07 397.646 153.838L398.335 152.424L399.427 150.221L401.086 146.943L404.522 140.19L405.072 139.092L405.834 137.551L406.302 136.587L406.742 135.669L407.155 134.791L407.544 133.948L407.91 133.136L408.256 132.35L411.791 124.128L413.957 119.123L416.067 114.274L418.13 109.566L420.152 104.983L421.151 102.733L423.126 98.306L425.08 93.9634L427.02 89.689L428.305 86.8798L428.875 85.6609L429.318 84.732L429.78 83.7804L430.27 82.7859L431.009 81.3109L432.295 78.7863L435.244 73.0653L436.174 71.2438L437.018 69.5732L437.966 67.666L438.315 66.9513L438.649 66.2602L439.124 65.2623L439.715 63.9905L439.995 63.3741L440.266 62.7673L440.659 61.8693L441.038 60.9783L441.285 60.384L441.529 59.7865C441.691 59.3864 441.852 58.9825 442.013 58.5713C443.021 56.0001 443.84 53.3574 444.581 50.3081L444.839 49.2144C445.052 48.288 445.26 47.3231 445.464 46.311L445.708 45.0734L445.951 43.7872L446.193 42.4493L446.435 41.0563C446.475 40.8194 446.516 40.58 446.557 40.3382C446.722 39.3541 446.785 38.3361 446.768 37.0294L446.75 36.2864L446.718 35.477L446.53 32.0597L446.498 31.1588L446.46 29.634L446.433 29.0223L446.407 28.6672L446.386 28.467L446.298 28.4906C445.881 28.6054 445.346 28.8019 444.698 29.0918L444.45 29.205L443.972 29.4312L443.503 29.663C443.425 29.7022 443.348 29.7418 443.271 29.7817L442.808 30.0263C442.731 30.0679 442.654 30.11 442.577 30.1527L442.112 30.4154L441.641 30.6932L441.159 30.9885L440.662 31.3037L440.147 31.6412L439.609 32.0034L439.044 32.3928L438.449 32.8117L437.49 33.5006L436.067 34.5449L433.743 36.2716L432.721 37.0194L431.8 37.6777L429.701 39.163L427.037 41.062L425.76 41.9789L423.309 43.7528L422.134 44.6118L420.43 45.8683L418.793 47.0894L417.219 48.2785L416.204 49.0553L415.213 49.8205L413.773 50.9487L412.841 51.6893L411.93 52.4219L411.039 53.1475L410.167 53.8672L409.313 54.5819L408.475 55.2927L407.654 56.0006L406.846 56.7066L406.052 57.4118L405.269 58.1172L404.498 58.8239L403.736 59.5328L402.983 60.2449L401.867 61.3216L401.13 62.0464L400.398 62.7781L399.669 63.5178L398.943 64.2663L398.217 65.0248L397.491 65.7943L396.765 66.5757L393.93 69.651L391.147 72.6852L389.447 74.5456L384.395 80.111L381.485 83.3399L377.732 87.5287L372.153 93.7984L365.119 101.758L354.425 113.934L331.896 139.679L324.042 148.633L320.855 152.297L318.677 154.826L317.25 156.499L315.137 159.009L313.65 160.805L312.686 161.984L311.94 162.904L310.948 164.139L309.948 165.396L301.485 176.106L294.512 184.968L279.736 203.844L226.422 272.299L214.682 287.307L199.708 306.346L190.957 317.406L187.685 321.517L184.22 325.849L181.286 329.497L179.149 332.141L174.267 338.134L171.691 341.271L169.575 343.834L168.674 344.914L167.763 345.996L166.372 347.627L164.945 349.277L163.97 350.392L162.974 351.522L161.435 353.251L159.836 355.028L158.732 356.244L157.015 358.122L154.598 360.74L152.377 363.13L151.647 363.938L149.319 366.568L146.292 370L144.959 371.491L144.006 372.531L143.504 373.058L143.211 373.349L143.131 373.424C140.929 375.45 138.726 376.615 135.146 377.497L134.435 377.665C134.192 377.719 133.943 377.773 133.688 377.826L132.902 377.982L132.075 378.134L131.205 378.283L130.145 378.451L129.535 378.54L128.951 378.617L128.39 378.679L127.854 378.728L127.34 378.763L126.848 378.783C123.64 378.863 121.848 377.914 120.445 375.253L120.238 374.841L120.035 374.402C120.002 374.327 119.969 374.251 119.936 374.173L119.74 373.694C119.707 373.612 119.675 373.529 119.643 373.445L119.451 372.925L119.261 372.377L119.072 371.799L118.884 371.193L118.696 370.557L118.506 369.891C117.548 366.46 117.038 362.764 116.916 358.811L116.798 354.772L116.722 351.835L116.677 349.918L116.619 347.105L116.572 344.363L116.548 342.573L116.529 340.813L116.515 339.082L116.505 336.539L116.508 334.057L116.524 331.633L116.554 329.267L116.581 327.719L116.615 326.195L116.656 324.693L116.702 323.212L116.756 321.753L116.816 320.314L116.884 318.895L116.958 317.494L117.039 316.112L117.128 314.747L117.223 313.398C117.24 313.175 117.257 312.952 117.274 312.73L117.381 311.405L117.496 310.095L117.618 308.799L117.748 307.517L117.886 306.246L118.032 304.988L118.186 303.741C118.212 303.534 118.239 303.328 118.266 303.122L118.432 301.89C118.461 301.685 118.49 301.481 118.519 301.277L118.698 300.059L118.885 298.849L119.082 297.647L119.287 296.451L119.501 295.262L119.724 294.077L119.956 292.897L120.197 291.721L120.448 290.548L120.708 289.377L120.977 288.208L121.257 287.04C121.351 286.651 121.448 286.261 121.546 285.872C129.656 253.627 141.659 220.282 157.875 183.422L158.991 180.894L160.106 178.382L160.851 176.714L161.597 175.05C162.841 172.279 164.093 169.521 165.365 166.75L167.347 162.456L168.889 159.147L171.094 154.459L173.035 150.374L175.032 146.21L176.742 142.669L178.858 138.322L182.174 131.569L185.683 124.491L188.561 118.728L193.376 109.155L199.082 97.8923L213.642 69.3463L216.959 62.8959L219.39 58.2058L221.869 53.4724L223.276 50.8138L225.094 47.4137L226.202 45.362L227.301 43.3419L228.632 40.9164L229.991 38.4603L230.631 37.3158L231.428 35.917L232.086 34.7818L232.779 33.6067L233.51 32.3855L234.293 31.0959L235.827 28.6069L238.207 24.804L242.435 18.0794L244.15 15.3118L245.082 13.7837L246.101 12.0832L247.209 10.1893L247.369 9.91L226.814 24.6546L220.278 29.3744L215.51 32.8478L211.167 36.0441L208.906 37.7248L205.886 39.9912L202.998 42.185L200.994 43.7251L199.481 44.8968L197.045 46.8026L195.735 47.8362L194.609 48.7298L192.718 50.241L189.608 52.7436L186.922 54.9168L184.262 57.08L181.082 59.6815L176.823 63.1927L173.36 66.0699L168.901 69.8017L163.274 74.5497L158.279 78.7949L148.954 86.7747L141.594 93.1086L130.56 102.638L113.532 117.361L111.035 119.512L108.934 121.295L102.388 126.755L100.179 128.617L98.5626 129.997L97.0661 131.293L96.0153 132.217L95.0202 133.105L94.0756 133.962L93.4714 134.52L92.5994 135.338L92.0388 135.874L91.493 136.403L90.6986 137.189L90.183 137.71L89.6768 138.231L88.9319 139.013L88.1995 139.802L87.4745 140.602L86.9927 141.145L86.5104 141.696C84.0363 144.547 81.6521 147.317 79.2849 150.094L76.9706 152.819L74.1217 156.197L70.9228 160.023L68.013 163.531L65.0129 167.174L61.4965 171.473L56.9418 177.082L52.039 183.158L44.143 193.006L20.0512 223.226L16.2891 227.928L13.0082 232.014L9.29246 236.62L5.15322 241.723L0.498535 237.937L4.35634 233.182L10.1776 225.958L21.0444 212.36L38.9137 189.938L45.7807 181.367L49.6619 176.545L55.5028 169.331L59.2685 164.716L63.6358 159.409L67.0693 155.275L70.4245 151.271L73.0085 148.214L74.6459 146.287C76.5674 144.032 78.5001 141.782 80.4825 139.49L82.2356 137.469L82.7469 136.888L83.5133 136.035L84.0261 135.475L84.5422 134.921L85.0634 134.37L85.8578 133.549L86.3983 133.002L87.2292 132.178L87.7989 131.624L88.6812 130.782L89.6013 129.924L90.2384 129.339L91.2337 128.439L92.2812 127.508L93.3862 126.54L94.9584 125.183L96.6552 123.739L99.4616 121.381L104.71 117.007L106.553 115.45L107.728 114.443L138.337 87.9945L146.232 81.2038L153.897 74.6459L159.908 69.5379L164.149 65.9579L169.098 61.8108L172.151 59.2719L177.281 55.0387L180.473 52.4279L182.928 50.4304L185.731 48.1624C186.201 47.7827 186.673 47.402 187.148 47.02L188.579 45.8694C190.38 44.4228 192.136 43.0269 193.898 41.6447L195.8 40.1589L198.555 38.0306L201.798 35.5598L205.638 32.6769L208.351 30.6637L212.713 27.4595L216.396 24.778L224.695 18.7879L242.449 6.06102L244.533 4.55953C246.18 3.37049 247.904 2.4488 250.457 1.28625C250.929 1.07122 251.527 0.898396 252.08 0.837405C252.647 0.774946 253.186 0.803227 253.799 1.04028C255.141 1.55929 256.003 2.91772 255.795 4.42556C255.467 6.81476 254.69 9.15477 253.525 11.2239C253.202 11.7984 252.885 12.3557 252.567 12.9082L251.605 14.564L250.592 16.2666L249.484 18.0912L248.012 20.4746L246.279 23.2461L242.189 29.7456L240.058 33.1726L238.671 35.447L237.954 36.6435L236.948 38.3562L236.478 39.1718L235.858 40.262L235.236 41.374L233.887 43.8124L233.004 45.4197L231.423 48.3198L229.587 51.7299L227.701 55.2773L225.72 59.0449L222.475 65.2908L218.768 72.4994L205.584 98.3421L200.861 107.648L196.461 116.365L192.353 124.56L189.341 130.613L186.875 135.603L184.12 141.22L181.483 146.647L179.306 151.169L176.851 156.32L174.81 160.651L172.816 164.925L171.185 168.455L169.896 171.268L168.937 173.374L167.816 175.852L167.071 177.505C165.832 180.263 164.601 183.033 163.367 185.838L162.579 187.634L161.024 191.209C160.253 192.991 159.492 194.764 158.741 196.53L157.252 200.051C144.47 230.473 134.707 258.553 127.762 285.766L127.364 287.335C127.27 287.711 127.177 288.086 127.086 288.461L126.817 289.588C126.773 289.776 126.729 289.964 126.686 290.152L126.431 291.281L126.185 292.413C126.144 292.602 126.104 292.791 126.065 292.98L125.832 294.118L125.609 295.259C125.572 295.45 125.536 295.641 125.5 295.832L125.289 296.982L125.087 298.138L124.894 299.3L124.709 300.471L124.532 301.65L124.363 302.837C124.336 303.036 124.308 303.235 124.282 303.435L124.125 304.638C124.1 304.839 124.075 305.041 124.05 305.243L123.905 306.462C123.882 306.666 123.859 306.871 123.836 307.076L123.703 308.313C123.681 308.521 123.66 308.729 123.639 308.937L123.517 310.194L123.403 311.465C123.385 311.678 123.367 311.892 123.349 312.106L123.246 313.399L123.15 314.709L123.061 316.034L122.979 317.377L122.904 318.738L122.836 320.118L122.774 321.516L122.72 322.935L122.671 324.375L122.629 325.836L122.594 327.319L122.564 328.826L122.532 331.13L122.512 333.489L122.506 335.906L122.509 337.551L122.523 340.071L122.54 341.786L122.574 344.414L122.604 346.203L122.678 349.877L122.746 352.717L122.797 354.652L122.913 358.626C123.021 362.121 123.465 365.342 124.285 368.277L124.534 369.155L124.758 369.918L124.958 370.574L125.138 371.129L125.297 371.592L125.439 371.968L125.523 372.175L125.602 372.349L125.674 372.493L125.74 372.607L125.8 372.696C125.81 372.708 125.82 372.72 125.829 372.731Z" fill="#093F68"/>
</svg>
